<svg xmlns="http://www.w3.org/2000/svg" width="2068" height="600" viewBox="0 0 2068 600" font-family="Segoe UI, Arial, Helvetica, sans-serif">
<title>01 · Akkaunt yaratish (ro'yxatdan o'tish)</title>
<defs><marker id="arr" viewBox="0 0 10 10" refX="10" refY="5" markerWidth="9" markerHeight="9" orient="auto-start-reverse"><path d="M0,0 L10,5 L0,10 z" fill="#3A4254"/></marker></defs>
<rect x="0" y="0" width="2068" height="600" fill="#FFFFFF"/>
<text x="10" y="24" font-size="16" font-weight="700" fill="#0F1522">01 · Akkaunt yaratish (ro'yxatdan o'tish)</text>
<text x="10" y="40" font-size="11" fill="#4B5468">Uch usul (Q-17): telefon + SMS + parol · E-IMZO · OneID. Akkaunt — shaxsniki; biznes keyin ariza orqali bog'lanadi. Natija: D1.</text>
<rect x="10" y="46" width="2046" height="540" fill="#FFFFFF" stroke="#0F1522" stroke-width="1.5"/>
<rect x="10" y="46" width="30" height="540" fill="#EEF0F5" stroke="#0F1522" stroke-width="1.5"/>
<g transform="translate(25,316) rotate(-90)"><text x="0" y="4" text-anchor="middle" font-size="12" font-weight="700" fill="#0F1522">Garant Merchant portali · Auth servis</text></g>
<rect x="40" y="46" width="2016" height="200" fill="#F6F8FF" stroke="#C9CFDB"/>
<rect x="40" y="46" width="34" height="200" fill="#FFFFFF" stroke="#C9CFDB"/>
<g transform="translate(57,146) rotate(-90)"><text x="0" y="3.5" text-anchor="middle" font-size="10.5" font-weight="600" fill="#4B5468">Foydalanuvchi (bo'lajak merchant)</text></g>
<rect x="40" y="246" width="2016" height="190" fill="#F8F9FB" stroke="#C9CFDB"/>
<rect x="40" y="246" width="34" height="190" fill="#FFFFFF" stroke="#C9CFDB"/>
<g transform="translate(57,341) rotate(-90)"><text x="0" y="3.5" text-anchor="middle" font-size="10.5" font-weight="600" fill="#4B5468">Platforma: Auth servis</text></g>
<rect x="40" y="436" width="2016" height="150" fill="#FFFBF3" stroke="#C9CFDB"/>
<rect x="40" y="436" width="34" height="150" fill="#FFFFFF" stroke="#C9CFDB"/>
<g transform="translate(57,511) rotate(-90)"><text x="0" y="-2.7" text-anchor="middle" font-size="10.5" font-weight="600" fill="#4B5468">Tashqi: E-IMZO / OneID,</text><text x="0" y="9.8" text-anchor="middle" font-size="10.5" font-weight="600" fill="#4B5468">SMS shlyuz, Email</text></g>
<path d="M175,146 L245,146" fill="none" stroke="#3A4254" stroke-width="1.3" marker-end="url(#arr)"/>
<path d="M369,146 L432,146" fill="none" stroke="#3A4254" stroke-width="1.3" marker-end="url(#arr)"/>
<path d="M482,146 L695,146" fill="none" stroke="#3A4254" stroke-width="1.3" marker-end="url(#arr)"/>
<path d="M457,171 L457,473" fill="none" stroke="#3A4254" stroke-width="1.3" marker-end="url(#arr)"/>
<path d="M519,511 L607,511 L607,379" fill="none" stroke="#3A4254" stroke-width="1.3" marker-end="url(#arr)"/>
<path d="M669,341 L727,341 L727,184" fill="none" stroke="#3A4254" stroke-width="1.3" marker-end="url(#arr)"/>
<path d="M819,146 L832,146 L832,341 L845,341" fill="none" stroke="#3A4254" stroke-width="1.3" marker-end="url(#arr)"/>
<path d="M907,379 L907,473" fill="none" stroke="#3A4254" stroke-width="1.3" marker-end="url(#arr)"/>
<path d="M969,511 L1059,511 L1059,184" fill="none" stroke="#3A4254" stroke-width="1.3" marker-end="url(#arr)"/>
<path d="M1119,146 L1150.5,146 L1150.5,341 L1182,341" fill="none" stroke="#3A4254" stroke-width="1.3" marker-end="url(#arr)"/>
<path d="M1207,316 L1207,146 L1295,146" fill="none" stroke="#3A4254" stroke-width="1.3" marker-end="url(#arr)"/>
<path d="M1207,366 L1207,403 L1099,403 L1099,184" fill="none" stroke="#3A4254" stroke-width="1.3" marker-end="url(#arr)"/>
<path d="M1232,341 L1357,341 L1357,368" fill="none" stroke="#3A4254" stroke-width="1.3" marker-end="url(#arr)"/>
<path d="M1014.8,202 L1014.8,341 L969,341" fill="none" stroke="#3A4254" stroke-width="1.3" marker-end="url(#arr)"/>
<path d="M1419,146 L1432,146 L1432,341 L1445,341" fill="none" stroke="#3A4254" stroke-width="1.3" marker-end="url(#arr)"/>
<path d="M1569,341 L1582,341 L1582,511 L1595,511" fill="none" stroke="#3A4254" stroke-width="1.3" marker-end="url(#arr)"/>
<path d="M1719,511 L1732,511 L1732,146 L1745,146" fill="none" stroke="#3A4254" stroke-width="1.3" marker-end="url(#arr)"/>
<path d="M1869,146 L1939,146" fill="none" stroke="#3A4254" stroke-width="1.3" marker-end="url(#arr)"/>
<path d="M307,88 L307,108" stroke="#8A93A3" stroke-dasharray="2,3" fill="none"/>
<rect x="222" y="52" width="170" height="36" fill="#FFFFFF" fill-opacity="0.9" stroke="none"/>
<path d="M234,52 L222,52 L222,88 L234,88" fill="none" stroke="#8A93A3" stroke-width="1.2"/>
<text x="229" y="67" font-size="10.5" fill="#4B5468" font-style="italic">Bitta shaxs = bitta akkaunt</text>
<text x="229" y="80" font-size="10.5" fill="#4B5468" font-style="italic">(telefon va PINFL unikal)</text>
<path d="M457,562 L457,549" stroke="#8A93A3" stroke-dasharray="2,3" fill="none"/>
<rect x="372" y="544" width="250" height="36" fill="#FFFFFF" fill-opacity="0.9" stroke="none"/>
<path d="M384,544 L372,544 L372,580 L384,580" fill="none" stroke="#8A93A3" stroke-width="1.2"/>
<text x="379" y="559" font-size="10.5" fill="#4B5468" font-style="italic">Direktorning yuridik shaxs kaliti → STIR ham</text>
<text x="379" y="572" font-size="10.5" fill="#4B5468" font-style="italic">keladi, ariza beruvchi roli avtomatik «direktor»</text>
<path d="M1357,88 L1357,108" stroke="#8A93A3" stroke-dasharray="2,3" fill="none"/>
<rect x="1257" y="52" width="200" height="36" fill="#FFFFFF" fill-opacity="0.9" stroke="none"/>
<path d="M1269,52 L1257,52 L1257,88 L1269,88" fill="none" stroke="#8A93A3" stroke-width="1.2"/>
<text x="1264" y="67" font-size="10.5" fill="#4B5468" font-style="italic">E-IMZO / OneID bilan kelsa F.I.Sh</text>
<text x="1264" y="80" font-size="10.5" fill="#4B5468" font-style="italic">tayyor; parol ixtiyoriy</text>
<path d="M1507,394 L1507,379" stroke="#8A93A3" stroke-dasharray="2,3" fill="none"/>
<rect x="1419.5" y="394" width="175" height="36" fill="#FFFFFF" fill-opacity="0.9" stroke="none"/>
<path d="M1431.5,394 L1419.5,394 L1419.5,430 L1431.5,430" fill="none" stroke="#8A93A3" stroke-width="1.2"/>
<text x="1426.5" y="409" font-size="10.5" fill="#4B5468" font-style="italic">Parol: argon2id; 5 marta xato →</text>
<text x="1426.5" y="422" font-size="10.5" fill="#4B5468" font-style="italic">15 daq blok</text>
<path d="M1807,101 L1807,108" stroke="#8A93A3" stroke-dasharray="2,3" fill="none"/>
<rect x="1714.5" y="52" width="185" height="49" fill="#FFFFFF" fill-opacity="0.9" stroke="none"/>
<path d="M1726.5,52 L1714.5,52 L1714.5,101 L1726.5,101" fill="none" stroke="#8A93A3" stroke-width="1.2"/>
<text x="1721.5" y="67" font-size="10.5" fill="#4B5468" font-style="italic">Email tasdiqlanmaguncha ariza</text>
<text x="1721.5" y="80" font-size="10.5" fill="#4B5468" font-style="italic">yuborilmaydi (G01), qoralama</text>
<text x="1721.5" y="93" font-size="10.5" fill="#4B5468" font-style="italic">mumkin</text>
<circle cx="157" cy="146" r="18" fill="#E7F6EE" stroke="#157A4A" stroke-width="1.6"/><text x="157" y="178.5" text-anchor="middle" font-size="10.5" fill="#0F1522" font-weight="600">«Ro'yxatdan o'tish»</text>
<rect x="245" y="108" width="124" height="76" rx="9" fill="#EAEEFC" stroke="#2C4CE0" stroke-width="1.6"/><circle cx="258" cy="118" r="3.6" fill="none" stroke="#2C4CE0" stroke-width="1.2"/><path d="M252,129 Q258,119 264,129 Z" fill="none" stroke="#2C4CE0" stroke-width="1.2"/><text x="307" y="139.3" text-anchor="middle" font-size="11" fill="#0F1522">Talablar, tariflar</text><text x="307" y="152.7" text-anchor="middle" font-size="11" fill="#0F1522">bilan tanishish</text><text x="307" y="166.1" text-anchor="middle" font-size="11" fill="#0F1522">(landing)</text>
<path d="M457,121 L482,146 L457,171 L432,146 Z" fill="#FFF6E6" stroke="#A15C00" stroke-width="1.6"/><path d="M449,138 L465,154 M465,138 L449,154" stroke="#A15C00" stroke-width="3.2" stroke-linecap="round"/><text x="510.9" y="116.5" text-anchor="middle" font-size="10.5" fill="#0F1522" font-weight="600">Kirish usuli?</text>
<rect x="395" y="473" width="124" height="76" rx="9" fill="#EAEEFC" stroke="#2C4CE0" stroke-width="1.6"/><circle cx="408" cy="483" r="3.6" fill="none" stroke="#2C4CE0" stroke-width="1.2"/><path d="M402,494 Q408,484 414,494 Z" fill="none" stroke="#2C4CE0" stroke-width="1.2"/><text x="457" y="504.3" text-anchor="middle" font-size="11" fill="#0F1522">E-IMZO kaliti yoki</text><text x="457" y="517.7" text-anchor="middle" font-size="11" fill="#0F1522">OneID (id.egov.uz)</text><text x="457" y="531.1" text-anchor="middle" font-size="11" fill="#0F1522">orqali identifikatsiya</text>
<rect x="545" y="303" width="124" height="76" rx="9" fill="#EEF1F5" stroke="#4B5468" stroke-width="1.6"/><circle cx="558" cy="316" r="5.5" fill="none" stroke="#4B5468" stroke-width="2.4" stroke-dasharray="2.2,1.7"/><circle cx="558" cy="316" r="2.2" fill="none" stroke="#4B5468" stroke-width="1.1"/><text x="607" y="328.7" text-anchor="middle" font-size="10" fill="#0F1522">F.I.Sh, PINFL (yur.</text><text x="607" y="341.1" text-anchor="middle" font-size="10" fill="#0F1522">shaxs kaliti — STIR)</text><text x="607" y="353.5" text-anchor="middle" font-size="10" fill="#0F1522">olinadi; PINFL bo'yicha</text><text x="607" y="365.9" text-anchor="middle" font-size="10" fill="#0F1522">akkaunt bormi?</text>
<rect x="695" y="108" width="124" height="76" rx="9" fill="#EAEEFC" stroke="#2C4CE0" stroke-width="1.6"/><circle cx="708" cy="118" r="3.6" fill="none" stroke="#2C4CE0" stroke-width="1.2"/><path d="M702,129 Q708,119 714,129 Z" fill="none" stroke="#2C4CE0" stroke-width="1.2"/><text x="757" y="139.3" text-anchor="middle" font-size="11" fill="#0F1522">Telefon raqamini</text><text x="757" y="152.7" text-anchor="middle" font-size="11" fill="#0F1522">kiritish / bog'lash</text><text x="757" y="166.1" text-anchor="middle" font-size="11" fill="#0F1522">(+998)</text>
<rect x="845" y="303" width="124" height="76" rx="9" fill="#EEF1F5" stroke="#4B5468" stroke-width="1.6"/><circle cx="858" cy="316" r="5.5" fill="none" stroke="#4B5468" stroke-width="2.4" stroke-dasharray="2.2,1.7"/><circle cx="858" cy="316" r="2.2" fill="none" stroke="#4B5468" stroke-width="1.1"/><text x="907" y="334.3" text-anchor="middle" font-size="11" fill="#0F1522">Rate-limit; OTP</text><text x="907" y="347.7" text-anchor="middle" font-size="11" fill="#0F1522">yaratish (6 raqam, 3</text><text x="907" y="361.1" text-anchor="middle" font-size="11" fill="#0F1522">daq)</text>
<rect x="845" y="473" width="124" height="76" rx="9" fill="#F3EEFC" stroke="#6339B8" stroke-width="1.6"/><rect x="851" y="480" width="15" height="10" fill="#6339B8"/><path d="M851,480 L858.5,486 L866,480" fill="none" stroke="#FFFFFF" stroke-width="1.2"/><text x="907" y="511" text-anchor="middle" font-size="11" fill="#0F1522">SMS yuborish (SMS</text><text x="907" y="524.4" text-anchor="middle" font-size="11" fill="#0F1522">shlyuz)</text>
<rect x="995" y="108" width="124" height="76" rx="9" fill="#EAEEFC" stroke="#2C4CE0" stroke-width="1.6"/><circle cx="1008" cy="118" r="3.6" fill="none" stroke="#2C4CE0" stroke-width="1.2"/><path d="M1002,129 Q1008,119 1014,129 Z" fill="none" stroke="#2C4CE0" stroke-width="1.2"/><text x="1057" y="146" text-anchor="middle" font-size="11" fill="#0F1522">SMS koddagi 6</text><text x="1057" y="159.4" text-anchor="middle" font-size="11" fill="#0F1522">raqamni kiritish</text>
<path d="M1207,316 L1232,341 L1207,366 L1182,341 Z" fill="#FFF6E6" stroke="#A15C00" stroke-width="1.6"/><path d="M1199,333 L1215,349 M1215,333 L1199,349" stroke="#A15C00" stroke-width="3.2" stroke-linecap="round"/><text x="1265.4" y="311.5" text-anchor="middle" font-size="10.5" fill="#0F1522" font-weight="600">Kod to'g'rimi?</text>
<circle cx="1357" cy="386" r="18" fill="#FDECEA" stroke="#B3261E" stroke-width="3.2"/><text x="1357" y="418.5" text-anchor="middle" font-size="10.5" fill="#0F1522" font-weight="600">Vaqtincha bloklandi (15</text><text x="1357" y="431.5" text-anchor="middle" font-size="10.5" fill="#0F1522" font-weight="600">daq)</text>
<rect x="1295" y="108" width="124" height="76" rx="9" fill="#EAEEFC" stroke="#2C4CE0" stroke-width="1.6"/><circle cx="1308" cy="118" r="3.6" fill="none" stroke="#2C4CE0" stroke-width="1.2"/><path d="M1302,129 Q1308,119 1314,129 Z" fill="none" stroke="#2C4CE0" stroke-width="1.2"/><text x="1357" y="139.3" text-anchor="middle" font-size="11" fill="#0F1522">Profil: F.I.Sh, email,</text><text x="1357" y="152.7" text-anchor="middle" font-size="11" fill="#0F1522">parol; shaxsiy</text><text x="1357" y="166.1" text-anchor="middle" font-size="11" fill="#0F1522">ma'lumotlarga rozilik</text>
<rect x="1445" y="303" width="124" height="76" rx="9" fill="#EEF1F5" stroke="#4B5468" stroke-width="1.6"/><circle cx="1458" cy="316" r="5.5" fill="none" stroke="#4B5468" stroke-width="2.4" stroke-dasharray="2.2,1.7"/><circle cx="1458" cy="316" r="2.2" fill="none" stroke="#4B5468" stroke-width="1.1"/><text x="1507" y="334.3" text-anchor="middle" font-size="11" fill="#0F1522">Akkaunt: ACTIVE,</text><text x="1507" y="347.7" text-anchor="middle" font-size="11" fill="#0F1522">dostup D1; kirish</text><text x="1507" y="361.1" text-anchor="middle" font-size="11" fill="#0F1522">usullari bog'landi</text>
<rect x="1595" y="473" width="124" height="76" rx="9" fill="#F3EEFC" stroke="#6339B8" stroke-width="1.6"/><rect x="1601" y="480" width="15" height="10" fill="#6339B8"/><path d="M1601,480 L1608.5,486 L1616,480" fill="none" stroke="#FFFFFF" stroke-width="1.2"/><text x="1657" y="511" text-anchor="middle" font-size="11" fill="#0F1522">Email tasdiqlash</text><text x="1657" y="524.4" text-anchor="middle" font-size="11" fill="#0F1522">havolasi (24 soat)</text>
<rect x="1745" y="108" width="124" height="76" rx="9" fill="#EAEEFC" stroke="#2C4CE0" stroke-width="1.6"/><circle cx="1758" cy="118" r="3.6" fill="none" stroke="#2C4CE0" stroke-width="1.2"/><path d="M1752,129 Q1758,119 1764,129 Z" fill="none" stroke="#2C4CE0" stroke-width="1.2"/><text x="1807" y="146" text-anchor="middle" font-size="11" fill="#0F1522">«Arizalarim» sahifasi</text><text x="1807" y="159.4" text-anchor="middle" font-size="11" fill="#0F1522">(D1)</text>
<circle cx="1957" cy="146" r="18" fill="#E7F6EE" stroke="#157A4A" stroke-width="3.2"/><text x="1957" y="178.5" text-anchor="middle" font-size="10.5" fill="#0F1522" font-weight="600">Akkaunt faol — ariza</text><text x="1957" y="191.5" text-anchor="middle" font-size="10.5" fill="#0F1522" font-weight="600">yaratish mumkin</text>
<circle cx="1014.8" cy="184" r="18" fill="#FFF6E6" stroke="#A15C00" stroke-width="1.6"/><circle cx="1014.8" cy="184" r="14.5" fill="none" stroke="#A15C00" stroke-width="1.2"/><circle cx="1014.8" cy="184" r="9" fill="#FFFFFF" stroke="#A15C00" stroke-width="1.4"/><path d="M1014.8,178 L1014.8,184 L1019.8,186" fill="none" stroke="#A15C00" stroke-width="1.4"/><text x="968.3" y="188" text-anchor="middle" font-size="10.5" fill="#0F1522" font-weight="600">3 daqiqa</text>
<rect x="486" y="130" width="79.4" height="15" fill="#FFFFFF" fill-opacity="0.85" rx="2"/>
<text x="488" y="140.5" font-size="10.5" fill="#0F1522">Telefon + SMS</text>
<rect x="460" y="175" width="93.3" height="15" fill="#FFFFFF" fill-opacity="0.85" rx="2"/>
<text x="462" y="185.5" font-size="10.5" fill="#0F1522">E-IMZO / OneID</text>
<rect x="1210" y="299" width="20.4" height="15" fill="#FFFFFF" fill-opacity="0.85" rx="2"/>
<text x="1212" y="309.5" font-size="10.5" fill="#0F1522">Ha</text>
<rect x="1097" y="405" width="113.2" height="15" fill="#FFFFFF" fill-opacity="0.85" rx="2"/>
<text x="1099" y="415.5" font-size="10.5" fill="#0F1522">Yo'q, urinish qoldi (≤5)</text>
<rect x="1236" y="325" width="72.5" height="15" fill="#FFFFFF" fill-opacity="0.85" rx="2"/>
<text x="1238" y="335.5" font-size="10.5" fill="#0F1522">5 marta xato</text>
<rect x="971" y="345" width="100.6" height="28" fill="#FFFFFF" fill-opacity="0.85" rx="2"/>
<text x="973" y="355.5" font-size="10.5" fill="#0F1522">Kod eskirdi → qayta</text>
<text x="973" y="368.5" font-size="10.5" fill="#0F1522">yuborish (60 s)</text>
</svg>